<svg xmlns="http://www.w3.org/2000/svg" viewBox="0 0 520.83 37.66"><defs><style>.cls-1,.cls-2{fill:#fff;}.cls-1{fill-rule:evenodd;}</style></defs><title>资源 4</title><g id="图层_2" data-name="图层 2"><g id="图层_1-2" data-name="图层 1"><path class="cls-1" d="M121.19,18l13.69-.41s.75-3.69-1.15-5.9S124.6,7.15,114.06,8c-10.89.89-20.71,5.37-21.92,16.72a8.7,8.7,0,0,0,3,8C99.09,36,106.72,36.84,114,37c8.89.15,14.45-2.07,17.24-4,.13-1.22.24-2.28.37-3.51,0,0-5.26,3.32-14,3.34-4.07,0-13.58-1.59-11.75-12.39s11.7-9.25,11.7-9.25,6-.18,3.59,6.88"/><path class="cls-1" d="M219.16,4.4l1-3.84H207.75S190.06-.14,187.2,14c-3,14.68-4.76,23.15-4.76,23.15h12.84l3.34-19.83h9.47L209.67,14H199.15s.67-7.85,5.36-9a36.4,36.4,0,0,1,8.33-.57Z"/><path class="cls-1" d="M247.61,4.4,248.66.56H236.21S218.51-.14,215.66,14c-3,14.68-4.76,23.15-4.76,23.15h12.84l3.34-19.83h9.47L238.12,14H227.59s.67-7.85,5.36-9a36.49,36.49,0,0,1,8.34-.57Z"/><path class="cls-1" d="M267.78,16.26,253,16.78c3.1-7.75,16.54-8.88,14.76-.53m-15.53,3.35,29.08-1V15.79h-.07a6.8,6.8,0,0,0-1.34-4.67c-2.6-2.83-13.52-3.76-19.74-3.22-9.2.86-20,4.58-21.53,16.39-1.05,11.34,11.94,12.26,18.8,12.6C270,37.6,274.91,34.64,278,33l.35-3.67a29.3,29.3,0,0,1-14.21,3c-4.07,0-13.61-1.52-11.93-12.32a2.12,2.12,0,0,1,.07-.35"/><path class="cls-1" d="M65.61,7.9A5.76,5.76,0,0,1,69.1,5c3.83-.94,10.43-.57,14.65-.6L84.81.56H72.34S54.66-.14,51.81,14C48.85,28.68,47,37.14,47,37.14H59.88c.91-5.43,3.79-27.31,5.72-29.24"/><path class="cls-1" d="M82.23,31.94A5.24,5.24,0,1,1,77,26.72a5.23,5.23,0,0,1,5.24,5.22"/><path class="cls-1" d="M6.8.59,0,37c14.93,1.11,38.41,3.22,44.68-17.39C50.57-1.48,18.55.1,6.8.59M22.59,31c-6.28,3.19-12,.53-12.68-5.92S13.68,10.8,20,7.61s12-.53,12.68,5.92S28.86,27.81,22.59,31"/><path class="cls-1" d="M162.18,8s-23.53-1.78-26.32,15.87C133.74,37,151.47,37,157.79,37.12s19.82-.64,24.22-13.29C187.81,7.2,162.18,8,162.18,8m-1.6,26.24c-6.28,3.18-12,.54-12.68-5.92S151.68,14,158,10.84s12-.53,12.68,5.92S166.86,31,160.58,34.21"/><path class="cls-1" d="M312.06,16.26l-14.76.53c3.1-7.75,16.54-8.88,14.76-.53m-15.54,3.35,29.1-1V15.79h-.08a6.89,6.89,0,0,0-1.35-4.67c-2.61-2.83-13.53-3.76-19.74-3.22-9.19.86-20,4.58-21.53,16.39-1.05,11.34,11.94,12.26,18.8,12.6,12.55.72,17.47-2.24,20.55-3.91l.34-3.67a29.3,29.3,0,0,1-14.22,3c-4.07,0-13.61-1.52-11.93-12.32,0-.13,0-.23.06-.35"/><path class="cls-2" d="M382.43.29h-7.34c0,1.23-1.28,1.23-1.84,1.23V6.45h1.84V31.4c0,1.37-.78,2.19-1.84,2.19v3.72h1.84c4.3,0,7.34-1.84,7.34-6.71V9.8a3.13,3.13,0,0,1,3.35-3.35h.32V31.63a1.74,1.74,0,0,1-1.83,2v3.72c3.23,0,5.52-1.14,5.52-5.26V1.52h-7.36Z"/><path class="cls-2" d="M391.6,6.48V37.31H399c4.3,0,7.34-1.83,7.34-6.55V.29H399c-4.31,0-7.37,1.54-7.37,6.19m10.72-1.27h.33V28.7c0,3.21-2.29,3.68-3.35,3.68H399V8.92c0-3.08,2.26-3.7,3.35-3.7"/><path class="cls-2" d="M356.7,6.48V37.31H364c4.32,0,7.35-1.83,7.35-6.55V.29H364c-4.29,0-7.33,1.86-7.33,6.19m10.7-1.27h.32V28.7c0,3.21-2.28,3.68-3.36,3.68H364V8.92a3.34,3.34,0,0,1,3.37-3.7"/><path class="cls-2" d="M432,31.43a10.4,10.4,0,0,0,11.41,5.69c-.7-8.1-11.69-6.23-11.41-5.69"/><path class="cls-2" d="M504.36,9h-4.55V0h-7.35V9h-21v6h21V30.9H476.94v5.8H495.7v0H510.3c2.07,0,5-.26,5-4.31V30.9H499.81V16.24c0-1,.85-1.19,1.47-1.22H515.8c2.06,0,5-.27,5-4.42V9Z"/><path class="cls-2" d="M451.37,7.87h-2.32V7.73a1.5,1.5,0,0,1,1.15-1.28h8.15c3.23,0,5.52-.49,5.52-4.32V.28h-5.52c0,1.15-.77,1.24-1.84,1.24h-7.47V.29h-7.34c0,1.07-.94,1.21-1.56,1.23H426.21V6.45h15.5v5.29a1.47,1.47,0,0,1-1.48,1.58h-7.86a1.7,1.7,0,0,1,1.31-1.72h6V7.89h-7.35c-4.08,0-6.16.22-6.16,5.33V23.62h6.15a1.53,1.53,0,0,1,1.54-1.33h7.82v1.44H449a1.53,1.53,0,0,1,1.62-1.33h7.11v1.28h6.11V7.87Zm0,3.71h6.25c0,.05,0,.09,0,.17a1.47,1.47,0,0,1-1.48,1.58h-7.09V13a1.52,1.52,0,0,1,1.56-1.41Zm6.34,5.36V17a.27.27,0,0,1,0-.09Zm-25.34-3.57h0Zm5.31,5.41h-5.32v-.09h0A1.65,1.65,0,0,1,434,16.93h7.68v0a1.06,1.06,0,0,0,0,.24A1.52,1.52,0,0,1,440,18.78h-2.34Zm13.68,0h-2.32v-.09a1.64,1.64,0,0,1,1.65-1.76h6.73c0,.07,0,.15,0,.27A1.44,1.44,0,0,1,456,18.78h-4.64Z"/><path class="cls-2" d="M426.36,24.36h-.15v4.52h26.72v2.44c0,1.37-.77,2.2-1.84,2.2h-5v3.7h6.81c4.3,0,7.34-1.84,7.34-6.71V28.87c1.54,0,3.61-.36,3.61-3.65v-.86H426.36Z"/><path class="cls-2" d="M423.31.29H416c0,1.23-1.27,1.23-1.84,1.23h-.41V6.47h2.16V31.4s0,.06,0,.11v5.8c4.3,0,7.34-1.84,7.34-6.71V7.7h0c0-1.23,1.28-1.23,1.84-1.23h0V1.52h-1.75Z"/></g></g></svg>