<?xml version="1.0" standalone="no"?><!DOCTYPE svg PUBLIC "-//W3C//DTD SVG 1.1//EN" "http://www.w3.org/Graphics/SVG/1.1/DTD/svg11.dtd"><svg t="1687754999394" class="icon" viewBox="0 0 1024 1024" version="1.1" xmlns="http://www.w3.org/2000/svg" p-id="2397" width="64" height="64" xmlns:xlink="http://www.w3.org/1999/xlink"><path d="M486.4 630.4c-19.2 19.2-48 19.2-67.2 3.2L281.6 502.4l-32 35.2 137.6 131.2c38.4 35.2 96 35.2 134.4-3.2L803.2 368 768 336 486.4 630.4z" fill="#36ab60" p-id="2398"></path><path d="M512 51.2C259.2 51.2 51.2 256 51.2 512S256 972.8 512 972.8 972.8 768 972.8 512 764.8 51.2 512 51.2z m0 873.6C284.8 924.8 99.2 739.2 99.2 512S284.8 99.2 512 99.2 924.8 284.8 924.8 512 739.2 924.8 512 924.8z" fill="#36ab60" p-id="2399"></path></svg>