<?xml version="1.0" standalone="no"?><!DOCTYPE svg PUBLIC "-//W3C//DTD SVG 1.1//EN" "http://www.w3.org/Graphics/SVG/1.1/DTD/svg11.dtd"><svg t="1687831096184" class="icon" viewBox="0 0 1024 1024" version="1.1" xmlns="http://www.w3.org/2000/svg" p-id="5043" xmlns:xlink="http://www.w3.org/1999/xlink" width="32" height="32"><path d="M511 66.49c-246.87 0-447 200.12-447 447s200.13 447 447 447 447-200.13 447-447-200.13-447-447-447z m270.82 717.82a381.57 381.57 0 1 1 82.11-121.76 381.69 381.69 0 0 1-82.11 121.76z" p-id="5044" fill="#ffffff"></path><path d="M675.24 578.6A249.77 249.77 0 0 0 625 545.31a193.92 193.92 0 0 0 80.74-157.6c0-107.25-86.94-194.18-194.18-194.18S317.4 280.46 317.4 387.71a194 194 0 0 0 81.87 158.43 250.09 250.09 0 0 0-133.21 182.5 32 32 0 0 0 26.46 36.71 32.44 32.44 0 0 0 5.16 0.42 32 32 0 0 0 31.55-26.89C343.89 648.44 421.15 582.8 513 582.8a185.46 185.46 0 0 1 183.47 154.9 32 32 0 1 0 63.11-10.65 250.27 250.27 0 0 0-84.34-148.45z m-255.71-283a130.19 130.19 0 1 1-38.13 92.06 129.34 129.34 0 0 1 38.13-92.01z" p-id="5045" fill="#ffffff"></path></svg>